<svg height="512pt" viewBox="-60 0 512 512.001" width="512pt" xmlns="http://www.w3.org/2000/svg"><path d="m343.308594 262.632812h-54.742188v-108.320312c0-50.769531-41.300781-92.070312-92.066406-92.070312-50.769531 0-92.070312 41.300781-92.070312 92.070312v108.320312h-54.742188v-108.320312c0-80.953125 65.859375-146.8125 146.8125-146.8125 80.949219 0 146.808594 65.859375 146.808594 146.8125zm0 0" fill="#ebebeb"/><path d="m104.429688 193.363281c-18.828126 4.367188-36.988282 10.210938-54.742188 17.597657v51.671874h54.742188zm0 0" fill="#d5d4da"/><path d="m343.308594 210.960938c-17.75-7.386719-35.910156-13.230469-54.742188-17.597657v69.269531h54.742188zm0 0" fill="#d5d4da"/><path d="m362.671875 253.414062c-45.753906-24.757812-97.847656-39.964843-166.171875-39.964843-68.328125 0-120.417969 15.207031-166.175781 39.964843-14.027344 7.589844-22.824219 22.199219-22.824219 38.148438v159.941406c0 29.269532 23.730469 52.996094 53 52.996094h272c29.269531 0 52.996094-23.726562 52.996094-52.996094v-159.941406c0-15.949219-8.796875-30.558594-22.824219-38.148438zm0 0" fill="#fab659"/><path d="m90.5 504.5c-29.269531 0-53-23.726562-53-52.996094v-201.859375c-2.40625 1.234375-4.800781 2.484375-7.175781 3.769531-14.027344 7.589844-22.824219 22.199219-22.824219 38.148438v159.941406c0 29.269532 23.730469 52.996094 53 52.996094zm0 0" fill="#ff9c20"/><path d="m236.148438 365.683594c0-22.859375-19.34375-41.199219-42.554688-39.542969-19.550781 1.390625-35.332031 17.238281-36.648438 36.796875-1.042968 15.488281 6.816407 29.238281 18.96875 36.636719l-4.929687 50.386719c-.460937 4.707031 3.234375 8.785156 7.96875 8.785156h35.09375c4.730469 0 8.429687-4.078125 7.96875-8.785156l-4.933594-50.386719c11.429688-6.957031 19.066407-19.53125 19.066407-33.890625zm0 0" fill="#4b5562"/><path d="m149.460938 362.433594c-1.082032 16.042968 5.945312 31.28125 18.554687 40.828125 0 0-4.496094 45.945312-4.5 45.964843-.878906 8.988282 6.414063 17.019532 15.433594 17.019532h35.097656c9.019531 0 16.308594-8.042969 15.429687-17.019532l-4.5-45.960937c11.773438-8.882813 18.667969-22.609375 18.667969-37.582031 0-25.996094-21.148437-47.148438-47.144531-47.148438-24.390625 0-45.398438 19.527344-47.039062 43.898438zm14.964843 1.007812c1.113281-16.511718 15.566407-29.90625 32.074219-29.90625 17.722656 0 32.144531 14.421875 32.144531 32.148438 0 11.316406-5.78125 21.589844-15.460937 27.484375-2.460938 1.496093-3.847656 4.269531-3.566406 7.136719 0 0 4.90625 50.09375 4.933593 50.382812.027344.300781-.203125.558594-.503906.558594 0 0-34.875 0-35.09375 0-.300781 0-.535156-.261719-.503906-.554688l4.929687-50.386718c.28125-2.867188-1.101562-5.640626-3.5625-7.136719-10.304687-6.269531-16.203125-17.660157-15.390625-29.726563zm0 0"/><path d="m132.167969 289.242188v-13c0-4.140626-3.359375-7.5-7.5-7.5-4.144531 0-7.5 3.359374-7.5 7.5v13c0 4.144531 3.355469 7.5 7.5 7.5 4.140625 0 7.5-3.355469 7.5-7.5zm0 0"/><path d="m275.828125 289.242188v-13c0-4.140626-3.355469-7.5-7.5-7.5-4.140625 0-7.5 3.359374-7.5 7.5v13c0 4.144531 3.359375 7.5 7.5 7.5 4.144531 0 7.5-3.355469 7.5-7.5zm0 0"/><path d="m196.5 303.683594c9.074219 0 17.59375-3.792969 23.375-10.410156 2.726562-3.117188 2.40625-7.855469-.710938-10.582032-3.121093-2.726562-7.855468-2.410156-10.582031.710938-2.933593 3.355468-7.335937 5.28125-12.082031 5.28125s-9.152344-1.925782-12.082031-5.28125c-2.726563-3.117188-7.464844-3.4375-10.585938-.710938-3.117187 2.726563-3.4375 7.464844-.710937 10.582032 5.78125 6.617187 14.300781 10.410156 23.378906 10.410156zm0 0"/><path d="m385.496094 342.003906c-4.144532 0-7.5 3.359375-7.5 7.5v102c0 25.085938-20.410156 45.496094-45.5 45.496094h-271.996094c-25.089844 0-45.5-20.410156-45.5-45.496094v-37.996094c0-4.144531-3.355469-7.5-7.5-7.5-4.140625 0-7.5 3.355469-7.5 7.5v37.996094c0 33.359375 27.140625 60.496094 60.5 60.496094h271.996094c33.359375 0 60.5-27.136719 60.5-60.496094v-102c0-4.140625-3.359375-7.5-7.5-7.5zm0 0"/><path d="m366.242188 246.816406c-5.117188-2.765625-10.261719-5.382812-15.433594-7.859375v-84.644531c0-85.089844-69.222656-154.3125-154.308594-154.3125-85.089844 0-154.3125 69.222656-154.3125 154.3125v84.644531c-5.171875 2.476563-10.316406 5.09375-15.433594 7.863281-16.5 8.925782-26.753906 26.074219-26.753906 44.742188v91.941406c0 4.144532 3.359375 7.5 7.5 7.5s7.5-3.355468 7.5-7.5v-91.941406c0-13.15625 7.238281-25.246094 18.894531-31.550781 22.875-12.378907 47.183594-22.007813 72.386719-28.460938.019531-.003906.039062-.015625.058594-.019531 28.019531-7.140625 57.699218-10.582031 90.15625-10.582031 32.457031 0 62.136718 3.441406 90.15625 10.578125.023437.007812.042968.019531.0625.023437 25.203125 6.414063 49.523437 16.089844 72.386718 28.460938 11.652344 6.304687 18.894532 18.394531 18.894532 31.550781v27.941406c0 4.140625 3.355468 7.5 7.5 7.5 4.140625 0 7.5-3.359375 7.5-7.5v-27.941406c0-18.671875-10.25-35.816406-26.753906-44.746094zm-309.054688-14.597656v-77.90625c0-76.816406 62.492188-139.3125 139.3125-139.3125 76.816406 0 139.308594 62.496094 139.308594 139.3125v77.90625c-.066406-.027344-14.765625-5.78125-14.808594-5.796875-8.191406-2.976563-16.492188-5.621094-24.933594-7.9375v-64.171875c0-54.902344-44.664062-99.566406-99.566406-99.566406s-99.570312 44.664062-99.570312 99.566406v64.171875c-8.449219 2.316406-16.761719 4.964844-24.964844 7.949219-.03125.011718-14.71875 5.761718-14.777344 5.785156zm54.742188-17.472656v-60.433594c0-46.632812 37.9375-84.570312 84.570312-84.570312 46.628906 0 84.566406 37.9375 84.566406 84.570312v60.433594c-26.457031-5.929688-54.371094-8.796875-84.566406-8.796875-30.199219 0-58.113281 2.867187-84.570312 8.796875zm0 0"/></svg>